<?xml version="1.0" encoding="UTF-8" standalone="no"?><!DOCTYPE svg PUBLIC "-//W3C//DTD SVG 1.1//EN" "http://www.w3.org/Graphics/SVG/1.1/DTD/svg11.dtd"><svg width="100%" height="100%" viewBox="0 0 182 186" version="1.1" xmlns="http://www.w3.org/2000/svg" xmlns:xlink="http://www.w3.org/1999/xlink" xml:space="preserve" xmlns:serif="http://www.serif.com/" style="fill-rule:evenodd;clip-rule:evenodd;stroke-linejoin:round;stroke-miterlimit:2;"><rect id="Artboard1" x="0" y="0" width="181.398" height="185.162" style="fill:none;"/><g id="Pylons-Project-logo"><g id="globe---light-blue"><path id="Shape" d="M65.094,8.369c4.893,-1.083 9.267,-0.994 13.191,0.168c4.156,1.241 5.912,3.608 5.212,7.013c-0.63,5.588 2.677,11.109 9.939,16.812c8.328,6.126 17.938,9.978 28.512,11.479c5.188,0.708 9.717,3.038 13.56,6.944c3.877,3.906 5.959,8.329 6.299,13.217c0.375,5.262 -1.258,9.599 -4.819,13.067c-3.801,3.543 -8.454,5.189 -14.089,4.768c-5.816,-0.447 -10.912,-2.749 -15.174,-6.988c-4.231,-4.234 -6.437,-8.911 -6.553,-14.152c0.422,-10.404 -3.297,-19.093 -11.237,-25.827c-7.018,-5.985 -15.854,-8.671 -26.198,-7.99c-9.659,0.788 -18.533,4.564 -26.468,11.375c-7.914,6.881 -12.611,14.907 -14.074,23.951c-1.024,4.497 -2.993,8.538 -5.975,12.044c-2.861,3.423 -5.678,5.216 -8.502,5.367c-2.807,0.211 -4.836,-1.188 -6.078,-4.099c-1.157,-2.721 -1.293,-6.153 -0.408,-10.245c0.876,-3.859 2.475,-7.383 4.914,-10.582c2.514,-3.293 5.223,-5.357 8.095,-6.217c6.113,-1.825 12.729,-5.918 19.91,-12.126c7.331,-6.222 12.442,-12.115 15.132,-17.743c0.076,-0.193 0.168,-0.383 0.25,-0.578c1.958,-4.532 6.819,-7.793 14.561,-9.658" style="fill:#1b478f;fill-rule:nonzero;"/><path id="Shape1" serif:id="Shape" d="M60.028,43.084c-9.759,0.54 -18.815,8.373 -20.268,17.565c-1.578,9.777 5.487,17.982 15.865,18.153c11.138,0.142 21.044,-8.475 21.926,-19.034c0.772,-9.818 -7.174,-17.279 -17.523,-16.684" style="fill:#1b478f;fill-rule:nonzero;"/><path id="Shape2" serif:id="Shape" d="M83.883,184.306c5.14,0.751 10.034,-0.378 10.901,-2.388c1.026,-2.333 -3.004,-4.844 -9,-5.731c-6.025,-0.891 -10.974,0.303 -11.092,2.794c-0.067,2.121 4.03,4.573 9.191,5.325" style="fill:#1b478f;fill-rule:nonzero;"/><path id="Shape3" serif:id="Shape" d="M156.378,164.223c5.241,-2.029 11.348,-8.102 13.831,-13.805c2.657,-6.143 0.688,-10.165 -4.544,-8.712c-5.983,1.669 -13.132,8.842 -15.743,15.647c-2.325,6.147 0.653,9.092 6.456,6.87" style="fill:#1b478f;fill-rule:nonzero;"/><path id="Shape4" serif:id="Shape" d="M34.828,156.981c-0.1,-0.383 -0.126,-0.734 -0.174,-1.102c-0.036,-0.021 -0.036,0.059 -0.071,0.03c-2.913,-15.811 -12.482,-27.176 -24.338,-32.129c0.017,0 0.038,-0.082 0.034,-0.053c-5.09,-2.155 -9.482,-9.708 -9.892,-17.739c-0.432,-8.594 3.759,-15.546 9.233,-15.361c6.447,0.219 11.938,8.831 12.269,19.076c0.002,0.233 -0.044,0.448 -0.044,0.681c0.009,-0.029 0.04,-0.065 0.053,-0.048c0.157,17.381 9.856,31.031 29.406,34.887c-0.026,-0.029 -0.061,0.015 -0.063,0.033c11.792,2.364 21.904,11.046 22.335,19.52c0.344,7.285 -7.854,11.38 -18.01,9.099c-9.558,-2.107 -18.723,-9.646 -20.738,-16.894" style="fill:#1b478f;fill-rule:nonzero;"/><path id="Shape5" serif:id="Shape" d="M14.812,138.599c-3.28,-1.257 -4.911,1.017 -3.687,4.986c1.179,3.786 4.701,7.951 7.946,9.446c3.446,1.555 5.421,-0.286 4.327,-4.255c-1.171,-4.186 -5.043,-8.826 -8.586,-10.177" style="fill:#1b478f;fill-rule:nonzero;"/></g><g id="globe---dark-blue"><path id="Shape6" serif:id="Shape" d="M98.251,0.753c-4.766,-0.745 -9.3,0 -10.123,1.541c-0.955,1.776 2.756,3.792 8.31,4.662c5.572,0.869 10.17,0.183 10.288,-1.723c0.102,-1.632 -3.692,-3.724 -8.475,-4.48" style="fill:#1b478f;fill-rule:nonzero;"/><path id="Shape7" serif:id="Shape" d="M28.242,20.302c-5.163,2.056 -11.268,7.604 -13.862,12.557c-2.806,5.379 -1.024,8.455 4.193,6.725c5.873,-2.058 13.111,-8.544 15.783,-14.258c2.424,-5.134 -0.46,-7.274 -6.114,-5.024" style="fill:#1b478f;fill-rule:nonzero;"/><path id="Shape8" serif:id="Shape" d="M143.028,25.328c0.105,0.33 0.138,0.61 0.195,0.913c0.036,0 0.025,-0.032 0.063,-0.032c3.207,13.244 13.17,23.691 25.133,29.453c-0.023,0 -0.017,0.033 -0.032,0.038c5.252,2.527 10.116,10.051 11.078,17.657c1.072,8.297 -2.645,14.497 -8.196,13.665c-6.523,-1.01 -12.647,-9.949 -13.608,-19.682c-0.015,-0.221 0.004,-0.416 -0.007,-0.639c-0.014,-0.025 -0.037,0.012 -0.037,0.034c-1.224,-15.873 -11.128,-28.518 -30.149,-32.548c0,-0.021 0.052,-0.055 0.048,-0.033c-11.275,-2.414 -20.939,-9.694 -21.363,-16.522c-0.334,-5.773 7.387,-8.859 16.947,-6.728c9.09,2.023 17.89,8.485 19.928,14.424" style="fill:#1b478f;fill-rule:nonzero;"/><path id="Shape9" serif:id="Shape" d="M120.949,177.861c-5.236,1.238 -9.967,1 -14.181,-0.56c-4.515,-1.669 -6.412,-4.688 -5.719,-8.983c0.612,-6.973 -6.169,-14.865 -13.949,-21.731c-8.758,-7.232 -18.773,-11.562 -29.769,-12.924c-5.36,-0.633 -10.003,-3.063 -13.778,-7.308c-3.824,-4.165 -5.703,-8.96 -5.814,-14.26c-0.096,-5.628 1.749,-10.339 5.539,-14.098c3.958,-3.857 8.705,-5.779 14.318,-5.499c5.815,0.227 10.892,2.491 15.073,6.805c4.261,4.316 6.403,9.317 6.47,14.968c-0.556,11.531 3.356,21.372 11.653,29.34c7.53,7.168 16.945,10.532 27.96,10.084c10.235,-0.595 19.484,-4.688 27.535,-12.223c7.879,-7.471 12.289,-16.225 13.189,-26.125c0.743,-4.812 2.504,-8.919 5.276,-12.374c2.649,-3.296 5.403,-4.797 8.265,-4.641c2.829,0.189 5.008,1.927 6.479,5.18c1.408,3.058 1.797,6.794 1.19,11.138c-0.566,4.105 -1.979,7.831 -4.244,11.039c-2.338,3.388 -4.978,5.392 -7.857,5.987c-6.225,1.35 -12.818,5.457 -19.981,12.222c-7.415,6.902 -9.379,14.811 -12.072,21.681c-0.086,0.236 -0.161,0.469 -0.249,0.707c-1.969,5.59 -7.084,9.491 -15.334,11.575" style="fill:#1b478f;fill-rule:nonzero;"/><path id="Shape10" serif:id="Shape" d="M122.15,134.577c10.216,-0.265 19.272,-8.67 20.336,-18.796c1.065,-10.461 -6.562,-19.541 -17.111,-20.075c-11.295,-0.574 -21.224,8.285 -21.911,19.627c-0.65,10.908 7.822,19.507 18.686,19.244" style="fill:#1b478f;fill-rule:nonzero;"/><path id="Shape11" serif:id="Shape" d="M158.296,30.168c-3.481,-1.583 -5.429,-0.27 -4.271,3.117c1.226,3.618 5.268,7.89 8.864,9.425c3.366,1.436 4.94,-0.314 3.599,-3.82c-1.287,-3.303 -4.907,-7.167 -8.192,-8.722" style="fill:#1b478f;fill-rule:nonzero;"/></g></g></svg>