<svg width="680px" height="185px" viewBox="0 0 680 185" version="1.1" xmlns="http://www.w3.org/2000/svg" xmlns:xlink="http://www.w3.org/1999/xlink">
    <!-- Generator: Sketch 42 (36781) - http://www.bohemiancoding.com/sketch -->
    <desc>Created with Sketch.</desc>
    <defs></defs>
    <g id="pylons-project-logo" stroke="none" stroke-width="1" fill="none" fill-rule="evenodd">
        <g id="globe---light-blue" transform="translate(0.000000, 5.721649)" fill-rule="nonzero" fill="#FFFFFF">
            <path d="M65.9982022,2.64721649 C70.8919101,1.56391753 75.2660674,1.6535567 79.1894382,2.81505155 C83.3458427,4.05664948 85.101236,6.42350515 84.4021348,9.8278866 C83.7717978,15.4160309 87.0782022,20.9374227 94.3404494,26.64 C102.668539,32.7659794 112.278315,36.6185567 122.852697,38.1195361 C128.040562,38.8271134 132.569438,41.157732 136.412584,45.0637113 C140.290112,48.9696907 142.372135,53.3925258 142.712135,58.2807216 C143.086517,63.542732 141.453371,67.8797423 137.892921,71.3470619 C134.091798,74.8906701 129.438764,76.5365979 123.803933,76.1151031 C117.98764,75.6688144 112.891461,73.3668041 108.63,69.1270619 C104.399101,64.8930412 102.192921,60.2165464 102.076404,54.9755155 C102.498539,44.5716495 98.7795506,35.8823711 90.8392135,29.1479897 C83.8214607,23.1631443 74.9852809,20.4777835 64.6420225,21.1586598 C54.9825843,21.9463402 46.1082022,25.7226289 38.1735955,32.533299 C30.26,39.4145361 25.5630337,47.4401031 24.0998876,56.4841237 C23.0760674,60.9813402 21.1067416,65.022732 18.1250562,68.5281959 C15.2637079,71.9516495 12.4462921,73.744433 9.62314607,73.8951031 C6.8152809,74.1068041 4.78674157,72.7069072 3.54516854,69.7964948 C2.38764045,67.0748969 2.25202247,63.6438144 3.13640449,59.5509278 C4.01314607,55.6926289 5.61191011,52.1680928 8.0511236,48.9696907 C10.5648315,45.6759278 13.2733708,43.6123196 16.1461798,42.7521649 C22.2585393,40.9269588 28.8751685,36.8340722 36.0552809,30.6260825 C43.3862921,24.4047423 48.4977528,18.5114433 51.187191,12.8832474 C51.2635955,12.6906186 51.3552809,12.4998969 51.4374157,12.3053608 C53.3952809,7.77381443 58.2565169,4.51247423 65.9982022,2.64721649" id="Shape"></path>
            <path d="M60.9325843,37.3623711 C51.1738202,37.9021134 42.1179775,45.7350515 40.664382,54.9278351 C39.0866292,64.7042268 46.1521348,72.9090722 56.5297753,73.0807216 C67.6676404,73.2218557 77.5734831,64.6050515 78.4559551,54.046701 C79.2276404,44.2283505 71.281573,36.7673196 60.9325843,37.3623711" id="Shape"></path>
            <path d="M84.7879775,178.584124 C89.9280899,179.335567 94.8217978,178.206495 95.6889888,176.196289 C96.7147191,173.863763 92.684382,171.351959 86.6885393,170.465103 C80.6640449,169.574433 75.7149438,170.768351 75.5965169,173.259175 C75.5296629,175.38 79.6268539,177.83268 84.7879775,178.584124" id="Shape"></path>
            <path d="M157.282472,158.501134 C162.52382,156.471856 168.630449,150.399278 171.113596,144.696701 C173.770562,138.553557 171.801236,134.531237 166.569438,135.984536 C160.586966,137.653351 153.437416,144.826392 150.826292,151.63134 C148.501685,157.778299 151.479551,160.723041 157.282472,158.501134" id="Shape"></path>
            <path d="M35.7324719,151.259433 C35.6331461,150.876082 35.6064045,150.525155 35.5586517,150.157062 C35.5223596,150.136082 35.5223596,150.216186 35.4879775,150.187577 C32.5750562,134.376753 23.0053933,123.011649 11.1493258,118.058608 C11.1665169,118.058608 11.1875281,117.976598 11.1837079,118.005206 C6.09325843,115.850052 1.70191011,108.297474 1.29123596,100.266186 C0.859550562,91.672268 5.05033708,84.7204639 10.5247191,84.9054639 C16.9713483,85.1247938 22.4629213,93.7358763 22.7933708,103.981443 C22.7952809,104.214124 22.7494382,104.429639 22.7494382,104.66232 C22.7589888,104.633711 22.7895506,104.597474 22.8029213,104.614639 C22.9595506,121.995103 32.6591011,135.645052 52.2091011,139.501443 C52.1823596,139.472835 52.1479775,139.516701 52.1460674,139.533866 C63.937191,141.898814 74.0493258,150.580464 74.4810112,159.054227 C74.8248315,166.339794 66.6266292,170.434588 56.4705618,168.153557 C46.9123596,166.046082 37.7476404,158.506856 35.7324719,151.259433" id="Shape"></path>
            <path d="M15.7164045,132.87768 C12.4367416,131.620825 10.8055056,133.894227 12.0298876,137.863144 C13.208427,141.648969 16.7306742,145.81433 19.9759551,147.309588 C23.4217978,148.863969 25.3968539,147.023505 24.3023596,143.054588 C23.1314607,138.868247 19.2596629,134.22799 15.7164045,132.87768" id="Shape"></path>
        </g>
        <g id="text---project" transform="translate(397.303371, 133.505155)" fill-rule="nonzero" fill="#FFFFFF">
            <path d="M11.321236,18.9119588 L5.25662921,18.9119588 L5.25662921,28.1257216 L0.34,28.1257216 L0.34,2.32489691 L11.2123596,2.32489691 C16.6103371,2.32489691 19.737191,5.60340206 19.737191,10.6575258 C19.737191,15.4560825 16.421236,18.9119588 11.321236,18.9119588 L11.321236,18.9119588 Z M5.25662921,6.89840206 L5.25662921,14.4109278 L11.1741573,14.4109278 C13.4414607,14.4109278 14.8205618,13.2551546 14.8205618,10.6556186 C14.8205618,8.05417526 13.4395506,6.89649485 11.1741573,6.89649485 L5.25662921,6.89649485 L5.25662921,6.89840206 Z" id="Shape"></path>
            <path d="M62.8866292,28.1257216 L57.9069663,28.1257216 C57.6108989,27.4295876 57.3835955,26.498866 57.3835955,25.3049485 L57.3835955,21.362732 C57.3835955,19.1770619 56.338764,18.1643299 54.0294382,18.1643299 L47.3325843,18.1643299 L47.3325843,28.1257216 L42.4102247,28.1257216 L42.4102247,2.32489691 L54.2204494,2.32489691 C59.618427,2.32489691 63.087191,5.19335052 63.087191,10.0205155 C63.087191,12.9652577 61.7004494,14.8610309 59.4675281,15.8966495 C61.2993258,16.9017526 62.3002247,18.685 62.3002247,21.4065979 L62.3002247,25.0112371 C62.2983146,25.9381443 62.5924719,27.3914433 62.8866292,28.1257216 L62.8866292,28.1257216 Z M54.331236,13.7472165 C54.9634831,13.7472165 58.1667416,13.4821134 58.1667416,10.2856186 C58.1667416,9.42737113 58.1667416,6.90030928 54.2185393,6.90030928 L47.3325843,6.90030928 L47.3325843,13.7491237 L54.331236,13.7491237 L54.331236,13.7472165 Z" id="Shape"></path>
            <path d="M110.746404,15.1204124 C110.746404,22.6329381 105.428652,28.5815464 98.1262921,28.5815464 C90.7914607,28.5815464 85.4679775,22.6348454 85.4679775,15.1204124 C85.4679775,7.64412371 90.7914607,1.69742268 98.1262921,1.69742268 C105.428652,1.69742268 110.746404,7.64412371 110.746404,15.1204124 M105.791573,15.1204124 C105.791573,10.3180412 102.368652,6.34721649 98.1262921,6.34721649 C93.8419101,6.34721649 90.4170787,10.3180412 90.4170787,15.1204124 C90.4170787,19.953299 93.8419101,23.9298454 98.1262921,23.9298454 C102.368652,23.9298454 105.791573,19.953299 105.791573,15.1204124" id="Shape"></path>
            <path d="M131.979213,20.1745361 L131.979213,18.3912887 L136.895843,18.3912887 L136.895843,20.3194845 C136.895843,22.0703093 137.971236,23.821134 140.397079,23.821134 C142.863034,23.821134 143.934607,22.0703093 143.934607,20.3194845 L143.934607,2.32298969 L148.851236,2.32298969 L148.851236,20.1726289 C148.851236,24.9692784 145.537191,28.6158763 140.397079,28.6158763 C135.256966,28.6158763 131.979213,24.9711856 131.979213,20.1745361" id="Shape"></path>
            <polygon id="Shape" points="191.905169 28.1257216 172.760112 28.1257216 172.760112 2.32489691 191.639663 2.32489691 191.639663 6.89840206 177.672921 6.89840206 177.672921 12.4026289 189.595843 12.4026289 189.595843 16.976134 177.672921 16.976134 177.672921 23.5617526 191.905169 23.5617526"></polygon>
            <path d="M225.563258,28.5796392 C218.535955,28.5796392 213.055843,22.6634536 213.055843,15.1185052 C213.055843,7.56783505 218.535955,1.65737113 225.563258,1.65737113 C231.421573,1.65737113 235.744157,4.96829897 237.335281,10.245567 L232.006067,10.245567 C230.85809,7.90541237 228.544944,6.15649485 225.563258,6.15649485 C221.322809,6.15649485 217.968652,10.245567 217.968652,15.1165979 C217.968652,20.0257732 221.322809,24.1091237 225.563258,24.1091237 C228.512472,24.1091237 230.85809,22.2953608 232.006067,19.9513918 L237.297079,19.9513918 C235.662022,25.1924227 231.308876,28.5796392 225.563258,28.5796392" id="Shape"></path>
            <polygon id="Shape" points="270.002022 6.89840206 270.002022 28.1257216 265.085393 28.1257216 265.085393 6.89840206 258.155506 6.89840206 258.155506 2.32489691 276.93573 2.32489691 276.93573 6.89840206"></polygon>
        </g>
        <g id="globe---dark-blue" transform="translate(13.370787, 0.000000)" fill-rule="nonzero" fill="#FFFFFF">
            <path d="M85.7850562,0.753350515 C81.0193258,0.00762886598 76.4847191,0.753350515 75.6614607,2.29438144 C74.7064045,4.07 78.4177528,6.08592784 83.9723596,6.95561856 C89.5441573,7.82530928 94.1417978,7.13871134 94.2602247,5.23340206 C94.3614607,3.60082474 90.5679775,1.50860825 85.7850562,0.753350515" id="Shape"></path>
            <path d="M15.775618,20.3023196 C10.6125843,22.358299 4.50786517,27.9063918 1.91393258,32.859433 C-0.892022472,38.2377835 0.89011236,41.3141237 6.10662921,39.5842784 C11.9802247,37.5263918 19.2176404,31.0399485 21.8898876,25.3259278 C24.3138202,20.191701 21.4295506,18.0518041 15.775618,20.3023196" id="Shape"></path>
            <path d="M130.56191,25.3278351 C130.666966,25.6577835 130.699438,25.9381443 130.756742,26.2413918 C130.793034,26.2413918 130.781573,26.2089691 130.819775,26.2089691 C134.026854,39.4526804 143.99,49.9004124 155.953034,55.6621134 C155.930112,55.6621134 155.935843,55.6945361 155.920562,55.7002577 C161.173371,58.2273196 166.036517,65.7512887 166.999213,73.357268 C168.070787,81.6536598 164.353708,87.8540206 158.802921,87.0224742 C152.279888,86.0116495 146.156067,77.0725258 145.195281,67.34 C145.18,67.1187629 145.199101,66.9242268 145.18764,66.7010825 C145.17427,66.6762887 145.151348,66.7125258 145.151348,66.7354124 C143.926966,50.8616495 134.023034,38.2168041 115.002135,34.1868557 C115.002135,34.1658763 115.053708,34.1315464 115.049888,34.154433 C103.774494,31.7398969 94.111236,24.4600515 93.687191,17.6322165 C93.3529213,11.8590722 101.073596,8.77319588 110.633708,10.9035567 C119.723933,12.9271134 128.52382,19.3887629 130.56191,25.3278351" id="Shape"></path>
            <path d="M108.482921,177.861289 C103.247303,179.099072 98.5159551,178.86067 94.3022472,177.300567 C89.7867416,175.631753 87.89,172.612629 88.5833708,168.317577 C89.1946067,161.344794 82.4137079,153.452732 74.6338202,146.586753 C65.8759551,139.354588 55.861236,135.025206 44.8647191,133.663454 C39.5049438,133.030258 34.8614607,130.600464 31.0870787,126.355 C27.2630337,122.189639 25.3834831,117.394897 25.2726966,112.094742 C25.177191,106.466546 27.0223596,101.755722 30.8120225,97.9965979 C34.7697753,94.1402062 39.5164045,92.217732 45.1302247,92.4980928 C50.9446067,92.7250515 56.0216854,94.9889175 60.2029213,99.3030412 C64.464382,103.619072 66.605618,108.619794 66.6724719,114.270876 C66.1166292,125.801907 70.0285393,135.643144 78.3260674,143.611495 C85.8557303,150.778814 95.2706742,154.143144 106.286292,153.694948 C116.520674,153.099897 125.769438,149.00701 133.820562,141.471598 C141.699775,134.001031 146.110225,125.246907 147.009888,115.346546 C147.752921,110.534639 149.514045,106.428402 152.285618,102.972526 C154.934944,99.6768557 157.689326,98.1758763 160.550674,98.332268 C163.379551,98.5210825 165.558989,100.258557 167.029775,103.512268 C168.437528,106.569536 168.827191,110.305773 168.219775,114.650412 C167.654382,118.754742 166.240899,122.481443 163.975506,125.689381 C161.637528,129.076598 158.997753,131.081082 156.119213,131.676134 C149.894157,133.026443 143.300449,137.13268 136.137528,143.897577 C128.722472,150.799794 126.758876,158.709021 124.065618,165.578814 C123.979663,165.815309 123.905169,166.04799 123.817303,166.286392 C121.847978,171.876443 116.732697,175.776701 108.482921,177.861289" id="Shape"></path>
            <path d="M109.684382,134.57701 C119.899663,134.311907 128.955506,125.906804 130.019438,115.781392 C131.085281,105.320309 123.458202,96.2400515 112.908652,95.7060309 C101.614157,95.1319588 91.6853933,103.990979 90.9977528,115.333196 C90.3483146,126.240567 98.8196629,134.840206 109.684382,134.57701" id="Shape"></path>
            <path d="M145.829438,30.1683505 C142.349213,28.5853608 140.400899,29.8975258 141.558427,33.2847423 C142.784719,36.902732 146.826517,41.1748969 150.423258,42.7102062 C153.788876,44.1463402 155.362809,42.3955155 154.02191,38.8900515 C152.734494,35.5867526 149.114831,31.722732 145.829438,30.1683505" id="Shape"></path>
        </g>
        <g id="text---pylons" transform="translate(227.303371, 3.814433)" fill-rule="nonzero" fill="#FFFFFF">
            <path d="M46.0642697,119.822784 C36.6244944,119.822784 28.6039326,116.683505 22.4686517,110.404948 L22.4686517,154.063041 L1.54719101,154.063041 L1.54719101,77.4139175 C1.54719101,54.1725773 18.6923596,35.1595361 43.2353933,35.1595361 C67.6179775,35.1595361 84.7669663,54.1725773 84.7669663,77.4139175 C84.7669663,100.815464 67.4594382,119.822784 46.0642697,119.822784 M43.2353933,54.6341237 C31.7460674,54.6341237 22.4686517,64.847268 22.4686517,77.4120103 C22.4686517,90.2876289 31.7460674,100.659072 43.2353933,100.659072 C54.7208989,100.659072 64.0040449,90.606134 64.0040449,77.4120103 C64.0040449,64.3723711 54.7208989,54.6341237 43.2353933,54.6341237" id="Shape"></path>
            <path d="M128.166629,132.862423 C120.302697,153.910464 107.875506,156.736959 90.8831461,155.63268 L90.8831461,136.787474 C101.260787,137.414948 106.144944,134.908866 109.600337,125.634072 L111.966966,119.508093 L80.6564045,37.2040722 L102.68191,37.2040722 L122.503146,95.6297423 L141.858315,37.2040722 L164.04236,37.2040722 L128.166629,132.862423 Z" id="Shape"></path>
            <path d="M170.34,1.22824742 L191.263371,1.22824742 L191.263371,84.1692784 C191.263371,95.6316495 196.451236,99.715 206.668427,99.089433 L206.668427,117.944175 C182.92573,120.455979 170.33809,106.313969 170.33809,84.1692784 L170.33809,1.22824742 L170.34,1.22824742 Z" id="Shape"></path>
            <path d="M289.099326,77.7324227 C289.099326,101.919742 270.695393,119.984897 248.19809,119.984897 C225.706517,119.984897 207.459213,101.917835 207.459213,77.7324227 C207.459213,53.5393814 225.706517,35.1595361 248.19809,35.1595361 C270.695393,35.1595361 289.099326,53.5393814 289.099326,77.7324227 M268.174045,77.8888144 C268.174045,63.9051031 259.211798,54.1706701 248.19618,54.1706701 C237.188202,54.1706701 228.220225,63.9051031 228.220225,77.8888144 C228.220225,91.548299 237.188202,100.973763 248.19618,100.973763 C259.211798,100.973763 268.174045,91.548299 268.174045,77.8888144" id="Shape"></path>
            <path d="M370.107191,118.094845 L349.340449,118.094845 L349.340449,70.8187629 C349.340449,66.1079381 347.928876,54.7924227 334.237191,54.7924227 C324.950225,54.7924227 318.507416,61.7060825 318.507416,70.8187629 L318.507416,118.094845 L297.740674,118.094845 L297.740674,37.2059794 L317.56573,37.2059794 L317.56573,45.0598969 C322.759326,38.9281959 329.834382,35.1595361 338.489101,35.1595361 C357.525281,35.1595361 370.109101,49.4503093 370.109101,70.8187629 L370.109101,118.094845 L370.107191,118.094845 Z" id="Shape"></path>
            <path d="M415.877303,119.984897 C395.272921,119.984897 380.013034,109.144278 377.495506,91.7104124 L398.575506,91.7104124 C401.400562,98.6183505 409.736292,101.128247 415.877303,101.128247 C424.216854,101.128247 430.503034,98.6183505 430.503034,93.9075258 C430.503034,89.3511856 427.677978,87.4630412 413.522135,85.2716495 C399.041573,83.0688144 379.692135,79.1418557 379.692135,61.0786082 C379.692135,48.3536598 390.862472,35.1576289 414.301461,35.1576289 C432.862022,35.1576289 446.710337,45.2162887 449.380674,60.4530412 L427.836517,60.4530412 C426.575843,56.6767526 422.014494,53.6957732 414.301461,53.6957732 C404.705056,53.6957732 400.777865,57.1535567 400.777865,60.1326289 C400.777865,64.3742784 406.754607,65.789433 416.815169,67.3609794 C436.955393,70.6623711 451.435955,75.0508763 451.435955,92.6487629 C451.437865,108.671289 436.644045,119.984897 415.877303,119.984897" id="Shape"></path>
        </g>
    </g>
</svg>
