<svg width="678px" height="185px" viewBox="2 0 678 185" version="1.1" xmlns="http://www.w3.org/2000/svg" xmlns:xlink="http://www.w3.org/1999/xlink">
    <!-- Generator: Sketch 42 (36781) - http://www.bohemiancoding.com/sketch -->
    <desc>Created with Sketch.</desc>
    <defs></defs>
    <g id="pylons-project-logo" stroke="none" stroke-width="1" fill="none" fill-rule="evenodd" transform="translate(2.000000, 0.000000)">
        <g id="globe---light-blue" transform="translate(0.000000, 6.721649)" fill-rule="nonzero" fill="#000000">
            <path d="M64.9982022,1.64721649 C69.8919101,0.563917526 74.2660674,0.653556701 78.1894382,1.81505155 C82.3458427,3.05664948 84.101236,5.42350515 83.4021348,8.8278866 C82.7717978,14.4160309 86.0782022,19.9374227 93.3404494,25.64 C101.668539,31.7659794 111.278315,35.6185567 121.852697,37.1195361 C127.040562,37.8271134 131.569438,40.157732 135.412584,44.0637113 C139.290112,47.9696907 141.372135,52.3925258 141.712135,57.2807216 C142.086517,62.542732 140.453371,66.8797423 136.892921,70.3470619 C133.091798,73.8906701 128.438764,75.5365979 122.803933,75.1151031 C116.98764,74.6688144 111.891461,72.3668041 107.63,68.1270619 C103.399101,63.8930412 101.192921,59.2165464 101.076404,53.9755155 C101.498539,43.5716495 97.7795506,34.8823711 89.8392135,28.1479897 C82.8214607,22.1631443 73.9852809,19.4777835 63.6420225,20.1586598 C53.9825843,20.9463402 45.1082022,24.7226289 37.1735955,31.533299 C29.26,38.4145361 24.5630337,46.4401031 23.0998876,55.4841237 C22.0760674,59.9813402 20.1067416,64.022732 17.1250562,67.5281959 C14.2637079,70.9516495 11.4462921,72.744433 8.62314607,72.8951031 C5.8152809,73.1068041 3.78674157,71.7069072 2.54516854,68.7964948 C1.38764045,66.0748969 1.25202247,62.6438144 2.13640449,58.5509278 C3.01314607,54.6926289 4.61191011,51.1680928 7.0511236,47.9696907 C9.56483146,44.6759278 12.2733708,42.6123196 15.1461798,41.7521649 C21.2585393,39.9269588 27.8751685,35.8340722 35.0552809,29.6260825 C42.3862921,23.4047423 47.4977528,17.5114433 50.187191,11.8832474 C50.2635955,11.6906186 50.3552809,11.4998969 50.4374157,11.3053608 C52.3952809,6.77381443 57.2565169,3.51247423 64.9982022,1.64721649" id="Shape"></path>
            <path d="M59.9325843,36.3623711 C50.1738202,36.9021134 41.1179775,44.7350515 39.664382,53.9278351 C38.0866292,63.7042268 45.1521348,71.9090722 55.5297753,72.0807216 C66.6676404,72.2218557 76.5734831,63.6050515 77.4559551,53.046701 C78.2276404,43.2283505 70.281573,35.7673196 59.9325843,36.3623711" id="Shape"></path>
            <path d="M83.7879775,177.584124 C88.9280899,178.335567 93.8217978,177.206495 94.6889888,175.196289 C95.7147191,172.863763 91.684382,170.351959 85.6885393,169.465103 C79.6640449,168.574433 74.7149438,169.768351 74.5965169,172.259175 C74.5296629,174.38 78.6268539,176.83268 83.7879775,177.584124" id="Shape"></path>
            <path d="M156.282472,157.501134 C161.52382,155.471856 167.630449,149.399278 170.113596,143.696701 C172.770562,137.553557 170.801236,133.531237 165.569438,134.984536 C159.586966,136.653351 152.437416,143.826392 149.826292,150.63134 C147.501685,156.778299 150.479551,159.723041 156.282472,157.501134" id="Shape"></path>
            <path d="M34.7324719,150.259433 C34.6331461,149.876082 34.6064045,149.525155 34.5586517,149.157062 C34.5223596,149.136082 34.5223596,149.216186 34.4879775,149.187577 C31.5750562,133.376753 22.0053933,122.011649 10.1493258,117.058608 C10.1665169,117.058608 10.1875281,116.976598 10.1837079,117.005206 C5.09325843,114.850052 0.701910112,107.297474 0.291235955,99.2661856 C-0.140449438,90.672268 4.05033708,83.7204639 9.5247191,83.9054639 C15.9713483,84.1247938 21.4629213,92.7358763 21.7933708,102.981443 C21.7952809,103.214124 21.7494382,103.429639 21.7494382,103.66232 C21.7589888,103.633711 21.7895506,103.597474 21.8029213,103.614639 C21.9595506,120.995103 31.6591011,134.645052 51.2091011,138.501443 C51.1823596,138.472835 51.1479775,138.516701 51.1460674,138.533866 C62.937191,140.898814 73.0493258,149.580464 73.4810112,158.054227 C73.8248315,165.339794 65.6266292,169.434588 55.4705618,167.153557 C45.9123596,165.046082 36.7476404,157.506856 34.7324719,150.259433" id="Shape"></path>
            <path d="M14.7164045,131.87768 C11.4367416,130.620825 9.80550562,132.894227 11.0298876,136.863144 C12.208427,140.648969 15.7306742,144.81433 18.9759551,146.309588 C22.4217978,147.863969 24.3968539,146.023505 23.3023596,142.054588 C22.1314607,137.868247 18.2596629,133.22799 14.7164045,131.87768" id="Shape"></path>
        </g>
        <g id="text---project" transform="translate(395.303371, 134.505155)" fill-rule="nonzero" fill="#000000">
            <path d="M11.321236,17.9119588 L5.25662921,17.9119588 L5.25662921,27.1257216 L0.34,27.1257216 L0.34,1.32489691 L11.2123596,1.32489691 C16.6103371,1.32489691 19.737191,4.60340206 19.737191,9.65752577 C19.737191,14.4560825 16.421236,17.9119588 11.321236,17.9119588 L11.321236,17.9119588 Z M5.25662921,5.89840206 L5.25662921,13.4109278 L11.1741573,13.4109278 C13.4414607,13.4109278 14.8205618,12.2551546 14.8205618,9.65561856 C14.8205618,7.05417526 13.4395506,5.89649485 11.1741573,5.89649485 L5.25662921,5.89649485 L5.25662921,5.89840206 Z" id="Shape"></path>
            <path d="M62.8866292,27.1257216 L57.9069663,27.1257216 C57.6108989,26.4295876 57.3835955,25.498866 57.3835955,24.3049485 L57.3835955,20.362732 C57.3835955,18.1770619 56.338764,17.1643299 54.0294382,17.1643299 L47.3325843,17.1643299 L47.3325843,27.1257216 L42.4102247,27.1257216 L42.4102247,1.32489691 L54.2204494,1.32489691 C59.618427,1.32489691 63.087191,4.19335052 63.087191,9.02051546 C63.087191,11.9652577 61.7004494,13.8610309 59.4675281,14.8966495 C61.2993258,15.9017526 62.3002247,17.685 62.3002247,20.4065979 L62.3002247,24.0112371 C62.2983146,24.9381443 62.5924719,26.3914433 62.8866292,27.1257216 L62.8866292,27.1257216 Z M54.331236,12.7472165 C54.9634831,12.7472165 58.1667416,12.4821134 58.1667416,9.28561856 C58.1667416,8.42737113 58.1667416,5.90030928 54.2185393,5.90030928 L47.3325843,5.90030928 L47.3325843,12.7491237 L54.331236,12.7491237 L54.331236,12.7472165 Z" id="Shape"></path>
            <path d="M110.746404,14.1204124 C110.746404,21.6329381 105.428652,27.5815464 98.1262921,27.5815464 C90.7914607,27.5815464 85.4679775,21.6348454 85.4679775,14.1204124 C85.4679775,6.64412371 90.7914607,0.69742268 98.1262921,0.69742268 C105.428652,0.69742268 110.746404,6.64412371 110.746404,14.1204124 M105.791573,14.1204124 C105.791573,9.31804124 102.368652,5.34721649 98.1262921,5.34721649 C93.8419101,5.34721649 90.4170787,9.31804124 90.4170787,14.1204124 C90.4170787,18.953299 93.8419101,22.9298454 98.1262921,22.9298454 C102.368652,22.9298454 105.791573,18.953299 105.791573,14.1204124" id="Shape"></path>
            <path d="M131.979213,19.1745361 L131.979213,17.3912887 L136.895843,17.3912887 L136.895843,19.3194845 C136.895843,21.0703093 137.971236,22.821134 140.397079,22.821134 C142.863034,22.821134 143.934607,21.0703093 143.934607,19.3194845 L143.934607,1.32298969 L148.851236,1.32298969 L148.851236,19.1726289 C148.851236,23.9692784 145.537191,27.6158763 140.397079,27.6158763 C135.256966,27.6158763 131.979213,23.9711856 131.979213,19.1745361" id="Shape"></path>
            <polygon id="Shape" points="191.905169 27.1257216 172.760112 27.1257216 172.760112 1.32489691 191.639663 1.32489691 191.639663 5.89840206 177.672921 5.89840206 177.672921 11.4026289 189.595843 11.4026289 189.595843 15.976134 177.672921 15.976134 177.672921 22.5617526 191.905169 22.5617526"></polygon>
            <path d="M225.563258,27.5796392 C218.535955,27.5796392 213.055843,21.6634536 213.055843,14.1185052 C213.055843,6.56783505 218.535955,0.657371134 225.563258,0.657371134 C231.421573,0.657371134 235.744157,3.96829897 237.335281,9.24556701 L232.006067,9.24556701 C230.85809,6.90541237 228.544944,5.15649485 225.563258,5.15649485 C221.322809,5.15649485 217.968652,9.24556701 217.968652,14.1165979 C217.968652,19.0257732 221.322809,23.1091237 225.563258,23.1091237 C228.512472,23.1091237 230.85809,21.2953608 232.006067,18.9513918 L237.297079,18.9513918 C235.662022,24.1924227 231.308876,27.5796392 225.563258,27.5796392" id="Shape"></path>
            <polygon id="Shape" points="270.002022 5.89840206 270.002022 27.1257216 265.085393 27.1257216 265.085393 5.89840206 258.155506 5.89840206 258.155506 1.32489691 276.93573 1.32489691 276.93573 5.89840206"></polygon>
        </g>
        <g id="globe---dark-blue" transform="translate(11.370787, 0.000000)" fill-rule="nonzero" fill="#000000">
            <path d="M85.7850562,0.753350515 C81.0193258,0.00762886598 76.4847191,0.753350515 75.6614607,2.29438144 C74.7064045,4.07 78.4177528,6.08592784 83.9723596,6.95561856 C89.5441573,7.82530928 94.1417978,7.13871134 94.2602247,5.23340206 C94.3614607,3.60082474 90.5679775,1.50860825 85.7850562,0.753350515" id="Shape"></path>
            <path d="M15.775618,20.3023196 C10.6125843,22.358299 4.50786517,27.9063918 1.91393258,32.859433 C-0.892022472,38.2377835 0.89011236,41.3141237 6.10662921,39.5842784 C11.9802247,37.5263918 19.2176404,31.0399485 21.8898876,25.3259278 C24.3138202,20.191701 21.4295506,18.0518041 15.775618,20.3023196" id="Shape"></path>
            <path d="M130.56191,25.3278351 C130.666966,25.6577835 130.699438,25.9381443 130.756742,26.2413918 C130.793034,26.2413918 130.781573,26.2089691 130.819775,26.2089691 C134.026854,39.4526804 143.99,49.9004124 155.953034,55.6621134 C155.930112,55.6621134 155.935843,55.6945361 155.920562,55.7002577 C161.173371,58.2273196 166.036517,65.7512887 166.999213,73.357268 C168.070787,81.6536598 164.353708,87.8540206 158.802921,87.0224742 C152.279888,86.0116495 146.156067,77.0725258 145.195281,67.34 C145.18,67.1187629 145.199101,66.9242268 145.18764,66.7010825 C145.17427,66.6762887 145.151348,66.7125258 145.151348,66.7354124 C143.926966,50.8616495 134.023034,38.2168041 115.002135,34.1868557 C115.002135,34.1658763 115.053708,34.1315464 115.049888,34.154433 C103.774494,31.7398969 94.111236,24.4600515 93.687191,17.6322165 C93.3529213,11.8590722 101.073596,8.77319588 110.633708,10.9035567 C119.723933,12.9271134 128.52382,19.3887629 130.56191,25.3278351" id="Shape"></path>
            <path d="M108.482921,177.861289 C103.247303,179.099072 98.5159551,178.86067 94.3022472,177.300567 C89.7867416,175.631753 87.89,172.612629 88.5833708,168.317577 C89.1946067,161.344794 82.4137079,153.452732 74.6338202,146.586753 C65.8759551,139.354588 55.861236,135.025206 44.8647191,133.663454 C39.5049438,133.030258 34.8614607,130.600464 31.0870787,126.355 C27.2630337,122.189639 25.3834831,117.394897 25.2726966,112.094742 C25.177191,106.466546 27.0223596,101.755722 30.8120225,97.9965979 C34.7697753,94.1402062 39.5164045,92.217732 45.1302247,92.4980928 C50.9446067,92.7250515 56.0216854,94.9889175 60.2029213,99.3030412 C64.464382,103.619072 66.605618,108.619794 66.6724719,114.270876 C66.1166292,125.801907 70.0285393,135.643144 78.3260674,143.611495 C85.8557303,150.778814 95.2706742,154.143144 106.286292,153.694948 C116.520674,153.099897 125.769438,149.00701 133.820562,141.471598 C141.699775,134.001031 146.110225,125.246907 147.009888,115.346546 C147.752921,110.534639 149.514045,106.428402 152.285618,102.972526 C154.934944,99.6768557 157.689326,98.1758763 160.550674,98.332268 C163.379551,98.5210825 165.558989,100.258557 167.029775,103.512268 C168.437528,106.569536 168.827191,110.305773 168.219775,114.650412 C167.654382,118.754742 166.240899,122.481443 163.975506,125.689381 C161.637528,129.076598 158.997753,131.081082 156.119213,131.676134 C149.894157,133.026443 143.300449,137.13268 136.137528,143.897577 C128.722472,150.799794 126.758876,158.709021 124.065618,165.578814 C123.979663,165.815309 123.905169,166.04799 123.817303,166.286392 C121.847978,171.876443 116.732697,175.776701 108.482921,177.861289" id="Shape"></path>
            <path d="M109.684382,134.57701 C119.899663,134.311907 128.955506,125.906804 130.019438,115.781392 C131.085281,105.320309 123.458202,96.2400515 112.908652,95.7060309 C101.614157,95.1319588 91.6853933,103.990979 90.9977528,115.333196 C90.3483146,126.240567 98.8196629,134.840206 109.684382,134.57701" id="Shape"></path>
            <path d="M145.829438,30.1683505 C142.349213,28.5853608 140.400899,29.8975258 141.558427,33.2847423 C142.784719,36.902732 146.826517,41.1748969 150.423258,42.7102062 C153.788876,44.1463402 155.362809,42.3955155 154.02191,38.8900515 C152.734494,35.5867526 149.114831,31.722732 145.829438,30.1683505" id="Shape"></path>
        </g>
        <g id="text---pylons" transform="translate(226.303371, 4.814433)" fill-rule="nonzero" fill="#000000">
            <path d="M45.0642697,118.822784 C35.6244944,118.822784 27.6039326,115.683505 21.4686517,109.404948 L21.4686517,153.063041 L0.547191011,153.063041 L0.547191011,76.4139175 C0.547191011,53.1725773 17.6923596,34.1595361 42.2353933,34.1595361 C66.6179775,34.1595361 83.7669663,53.1725773 83.7669663,76.4139175 C83.7669663,99.8154639 66.4594382,118.822784 45.0642697,118.822784 M42.2353933,53.6341237 C30.7460674,53.6341237 21.4686517,63.847268 21.4686517,76.4120103 C21.4686517,89.2876289 30.7460674,99.6590722 42.2353933,99.6590722 C53.7208989,99.6590722 63.0040449,89.606134 63.0040449,76.4120103 C63.0040449,63.3723711 53.7208989,53.6341237 42.2353933,53.6341237" id="Shape"></path>
            <path d="M127.166629,131.862423 C119.302697,152.910464 106.875506,155.736959 89.8831461,154.63268 L89.8831461,135.787474 C100.260787,136.414948 105.144944,133.908866 108.600337,124.634072 L110.966966,118.508093 L79.6564045,36.2040722 L101.68191,36.2040722 L121.503146,94.6297423 L140.858315,36.2040722 L163.04236,36.2040722 L127.166629,131.862423 Z" id="Shape"></path>
            <path d="M169.34,0.228247423 L190.263371,0.228247423 L190.263371,83.1692784 C190.263371,94.6316495 195.451236,98.715 205.668427,98.089433 L205.668427,116.944175 C181.92573,119.455979 169.33809,105.313969 169.33809,83.1692784 L169.33809,0.228247423 L169.34,0.228247423 Z" id="Shape"></path>
            <path d="M288.099326,76.7324227 C288.099326,100.919742 269.695393,118.984897 247.19809,118.984897 C224.706517,118.984897 206.459213,100.917835 206.459213,76.7324227 C206.459213,52.5393814 224.706517,34.1595361 247.19809,34.1595361 C269.695393,34.1595361 288.099326,52.5393814 288.099326,76.7324227 M267.174045,76.8888144 C267.174045,62.9051031 258.211798,53.1706701 247.19618,53.1706701 C236.188202,53.1706701 227.220225,62.9051031 227.220225,76.8888144 C227.220225,90.548299 236.188202,99.9737629 247.19618,99.9737629 C258.211798,99.9737629 267.174045,90.548299 267.174045,76.8888144" id="Shape"></path>
            <path d="M369.107191,117.094845 L348.340449,117.094845 L348.340449,69.8187629 C348.340449,65.1079381 346.928876,53.7924227 333.237191,53.7924227 C323.950225,53.7924227 317.507416,60.7060825 317.507416,69.8187629 L317.507416,117.094845 L296.740674,117.094845 L296.740674,36.2059794 L316.56573,36.2059794 L316.56573,44.0598969 C321.759326,37.9281959 328.834382,34.1595361 337.489101,34.1595361 C356.525281,34.1595361 369.109101,48.4503093 369.109101,69.8187629 L369.109101,117.094845 L369.107191,117.094845 Z" id="Shape"></path>
            <path d="M414.877303,118.984897 C394.272921,118.984897 379.013034,108.144278 376.495506,90.7104124 L397.575506,90.7104124 C400.400562,97.6183505 408.736292,100.128247 414.877303,100.128247 C423.216854,100.128247 429.503034,97.6183505 429.503034,92.9075258 C429.503034,88.3511856 426.677978,86.4630412 412.522135,84.2716495 C398.041573,82.0688144 378.692135,78.1418557 378.692135,60.0786082 C378.692135,47.3536598 389.862472,34.1576289 413.301461,34.1576289 C431.862022,34.1576289 445.710337,44.2162887 448.380674,59.4530412 L426.836517,59.4530412 C425.575843,55.6767526 421.014494,52.6957732 413.301461,52.6957732 C403.705056,52.6957732 399.777865,56.1535567 399.777865,59.1326289 C399.777865,63.3742784 405.754607,64.789433 415.815169,66.3609794 C435.955393,69.6623711 450.435955,74.0508763 450.435955,91.6487629 C450.437865,107.671289 435.644045,118.984897 414.877303,118.984897" id="Shape"></path>
        </g>
    </g>
</svg>
