<?xml version="1.0" encoding="UTF-8" standalone="no"?>
<!DOCTYPE svg PUBLIC "-//W3C//DTD SVG 1.1//EN" "http://www.w3.org/Graphics/SVG/1.1/DTD/svg11.dtd">
<svg width="100%" height="100%" viewBox="0 0 476 460" version="1.1" xmlns="http://www.w3.org/2000/svg" xmlns:xlink="http://www.w3.org/1999/xlink" xml:space="preserve" xmlns:serif="http://www.serif.com/" style="fill-rule:evenodd;clip-rule:evenodd;stroke-linejoin:round;stroke-miterlimit:2;">
    <g id="Artboard1" transform="matrix(1.00374,0,0,1.00447,-113.368,-1.26153)">
        <rect x="112.946" y="1.256" width="473.857" height="457.185" style="fill:none;"/>
        <g transform="matrix(0.996278,0,0,0.995548,112.684,1.26319)">
            <g id="pyramid_logo_red_on_transparent_background">
                <g id="Group">
                    <path id="Shape" d="M276.902,208.201C283.602,208.228 289.024,213.686 288.992,220.389C288.97,227.09 283.512,232.511 276.802,232.48C270.108,232.451 264.689,226.999 264.71,220.293C264.742,213.589 270.198,208.174 276.902,208.201" style="fill:rgb(69,89,12);fill-rule:nonzero;"/>
                    <path id="Shape1" serif:id="Shape" d="M318.484,230.876C325.412,235.59 327.214,245.027 322.491,251.958C317.783,258.888 308.343,260.686 301.419,255.972C294.491,251.258 292.692,241.823 297.401,234.889C302.116,227.961 311.555,226.162 318.484,230.876" style="fill:rgb(69,89,12);fill-rule:nonzero;"/>
                    <path id="Shape2" serif:id="Shape" d="M345.727,283.443C349.617,293.169 344.883,304.204 335.149,308.091C325.426,311.976 314.388,307.248 310.503,297.518C306.613,287.785 311.347,276.752 321.078,272.862C330.806,268.978 341.847,273.714 345.727,283.443" style="fill:rgb(69,89,12);fill-rule:nonzero;"/>
                    <path id="Shape3" serif:id="Shape" d="M337.223,356.954C334.451,369.754 321.825,377.885 309.026,375.113C296.231,372.335 288.101,359.717 290.876,346.923C293.65,334.124 306.27,325.996 319.068,328.762C331.866,331.537 339.992,344.158 337.223,356.954" style="fill:rgb(69,89,12);fill-rule:nonzero;"/>
                    <path id="Shape4" serif:id="Shape" d="M277.011,427.193C265.198,438.522 246.433,438.123 235.111,426.298C223.785,414.489 224.181,395.725 236,384.403C247.822,373.069 266.584,373.47 277.911,385.287C289.23,397.106 288.826,415.871 277.011,427.193" style="fill:rgb(69,89,12);fill-rule:nonzero;"/>
                    <path id="Shape5" serif:id="Shape" d="M165.529,457.895C145.367,461.375 126.199,447.844 122.729,427.68C119.252,407.52 132.772,388.355 152.943,384.88C173.103,381.403 192.268,394.925 195.747,415.1C199.216,435.257 185.696,454.425 165.529,457.895" style="fill:rgb(69,89,12);fill-rule:nonzero;"/>
                    <path id="Shape6" serif:id="Shape" d="M28.534,411.786C5.207,401.293 -5.196,373.882 5.296,350.558C15.792,327.236 43.206,316.829 66.531,327.324C89.857,337.815 100.257,365.229 89.768,388.556C79.269,411.876 51.857,422.28 28.534,411.786" style="fill:rgb(69,89,12);fill-rule:nonzero;"/>
                    <path id="Shape7" serif:id="Shape" d="M174.332,267.915C171.001,262.097 173.02,254.679 178.838,251.351C184.657,248.021 192.078,250.036 195.404,255.859C198.731,261.679 196.716,269.092 190.9,272.423C185.078,275.751 177.664,273.734 174.332,267.915" style="fill:rgb(69,89,12);fill-rule:nonzero;"/>
                    <path id="Shape8" serif:id="Shape" d="M173.17,220.569C173.788,212.209 181.068,205.935 189.433,206.549C197.783,207.169 204.062,214.438 203.445,222.799C202.827,231.158 195.551,237.432 187.193,236.816C178.834,236.199 172.559,228.925 173.17,220.569" style="fill:rgb(69,89,12);fill-rule:nonzero;"/>
                    <path id="Shape9" serif:id="Shape" d="M205.077,170.691C211.557,162.458 223.484,161.042 231.716,167.523C239.949,174 241.366,185.932 234.887,194.161C228.395,202.393 216.478,203.808 208.243,197.328C200.017,190.844 198.595,178.92 205.077,170.691" style="fill:rgb(69,89,12);fill-rule:nonzero;"/>
                    <path id="Shape10" serif:id="Shape" d="M272.998,141.301C285.468,137.296 298.818,144.166 302.817,156.636C306.812,169.111 299.952,182.462 287.477,186.459C275.015,190.453 261.663,183.587 257.661,171.117C253.658,158.649 260.531,145.298 272.998,141.301" style="fill:rgb(69,89,12);fill-rule:nonzero;"/>
                    <path id="Shape11" serif:id="Shape" d="M363.923,158.32C379.648,162.894 388.682,179.343 384.101,195.059C379.536,210.771 363.088,219.811 347.368,215.238C331.658,210.664 322.617,194.22 327.19,178.5C331.765,162.783 348.214,153.749 363.923,158.32" style="fill:rgb(69,89,12);fill-rule:nonzero;"/>
                    <path id="Shape12" serif:id="Shape" d="M446.265,239.515C459.358,255.243 457.219,278.604 441.496,291.693C425.771,304.785 402.413,302.657 389.319,286.928C376.224,271.205 378.363,247.846 394.089,234.747C409.813,221.661 433.17,223.795 446.265,239.515" style="fill:rgb(69,89,12);fill-rule:nonzero;"/>
                    <path id="Shape13" serif:id="Shape" d="M474.827,381.215C477.405,406.656 458.864,429.382 433.419,431.955C407.97,434.526 385.249,415.994 382.68,390.545C380.107,365.091 398.648,342.377 424.097,339.804C449.534,337.234 472.249,355.766 474.827,381.215" style="fill:rgb(69,89,12);fill-rule:nonzero;"/>
                    <path id="Shape14" serif:id="Shape" d="M277.333,326.887C273.963,332.68 266.525,334.645 260.729,331.267C254.943,327.894 252.979,320.459 256.35,314.672C259.73,308.878 267.159,306.91 272.948,310.289C278.747,313.66 280.701,321.092 277.333,326.887" style="fill:rgb(69,89,12);fill-rule:nonzero;"/>
                    <path id="Shape15" serif:id="Shape" d="M236.9,351.557C229.356,355.207 220.282,352.04 216.644,344.495C212.99,336.946 216.154,327.877 223.704,324.234C231.249,320.594 240.324,323.752 243.968,331.299C247.608,338.841 244.45,347.916 236.9,351.557" style="fill:rgb(69,89,12);fill-rule:nonzero;"/>
                    <path id="Shape16" serif:id="Shape" d="M177.755,348.878C167.39,347.378 160.201,337.756 161.696,327.39C163.198,317.02 172.809,309.825 183.177,311.328C193.549,312.827 200.74,322.448 199.242,332.807C197.744,343.181 188.124,350.376 177.755,348.878" style="fill:rgb(69,89,12);fill-rule:nonzero;"/>
                    <path id="Shape17" serif:id="Shape" d="M118.344,304.745C108.65,295.947 107.916,280.952 116.716,271.253C125.516,261.559 140.514,260.826 150.213,269.628C159.91,278.426 160.636,293.422 151.835,303.124C143.035,312.819 128.041,313.545 118.344,304.745" style="fill:rgb(69,89,12);fill-rule:nonzero;"/>
                    <path id="Shape18" serif:id="Shape" d="M87.618,217.488C83.72,201.588 93.446,185.543 109.346,181.643C125.241,177.748 141.296,187.469 145.191,203.366C149.091,219.265 139.363,235.312 123.465,239.213C107.568,243.113 91.516,233.384 87.618,217.488" style="fill:rgb(69,89,12);fill-rule:nonzero;"/>
                    <path id="Shape19" serif:id="Shape" d="M116.772,105.585C123.84,86.384 145.143,76.556 164.343,83.624C183.541,90.7 193.375,111.994 186.302,131.195C179.231,150.398 157.934,160.229 138.731,153.156C119.532,146.083 109.699,124.786 116.772,105.585" style="fill:rgb(69,89,12);fill-rule:nonzero;"/>
                    <path id="Shape20" serif:id="Shape" d="M225.206,10C245.952,-4.955 274.899,-0.255 289.844,20.489C304.8,41.242 300.107,70.19 279.351,85.14C258.608,100.096 229.664,95.398 214.701,74.644C199.76,53.897 204.452,24.954 225.206,10" style="fill:rgb(69,89,12);fill-rule:nonzero;"/>
                </g>
            </g>
        </g>
    </g>
</svg>
